# xmcd
#
# Track frame offsets: 
#        150
#        18580
#        37739
#        56636
#        75669
#        88680
#        108620
#        128214
#        154770
#        171441
#        186921
#        206340
#        230534
#        249446
#        268702
#
# Disc length: 3909 seconds
#
# Revision: 1
# Processed by: cddbd v1.5.1PL0 Copyright (c) Steve Scherf et al.
# Submitted via: ExactAudioCopy v0.95a5
#
DISCID=c70f430f
DTITLE=SPC - Family Bizness
DYEAR=2004
DGENRE=Gangsta Rap
TTITLE0=The Game Goes On (feat. K-Rino, Z-Ro)
TTITLE1=You Want Some (feat. K-Rino)
TTITLE2=Cum Dranka (feat. Point Blank, Ice Lord, DBX)
TTITLE3=Shellz In My Shotgun (feat. B-1, K-Rino)
TTITLE4=Lay Down (feat. Rhyme Felon)
TTITLE5=Heat Branga (feat. K-Rino)
TTITLE6=Street Knowledge 101 (feat. Klondike Kat)
TTITLE7=You Don't Wanna (feat. AC Chill)
TTITLE8=Candy (feat. K-Rino)
TTITLE9=Boxin' Game (feat. Young Dre')
TTITLE10=The Wizard (feat. K-Rino, Ganksta NIP, Dope-E, Murdoq)
TTITLE11=Dragon Klan (feat. DBX)
TTITLE12=Madness (feat. K-Rino)
TTITLE13=Bitch Azz Niggaz (feat. Greek)
TTITLE14=The Round Table (feat. Mysta CED, K-Rino, Murder 1, Texas Tec
TTITLE14=h, C-Rock, KB, AC Chill)
EXTD=
EXTT0=
EXTT1=
EXTT2=
EXTT3=
EXTT4=
EXTT5=
EXTT6=
EXTT7=
EXTT8=
EXTT9=
EXTT10=
EXTT11=
EXTT12=
EXTT13=
EXTT14=
PLAYORDER=
